<svg xmlns="http://www.w3.org/2000/svg" width="24" height="24" viewBox="0 0 24 24"><path d="M22.46 5.924c-.793-.352-1.644-.59-2.538-.697.913.547 1.615 1.414 1.946 2.448-.854-.507-1.8-.875-2.805-1.075-.806-.86-1.956-1.398-3.23-1.398-2.444 0-4.426 1.98-4.426 4.426 0 .347.04.684.115 1.008-3.68-.185-6.943-1.947-9.127-4.624-.382.656-.6 1.42-.6 2.236 0 1.542.785 2.904 1.98 3.703-.728-.023-1.413-.223-2.012-.557v.057c0 2.154 1.533 3.95 3.572 4.36-.373.102-.765.157-1.17.157-.286 0-.56-.028-.83-.08.56 1.747 2.188 3.018 4.116 3.052-1.507 1.18-3.41 1.885-5.48 1.885-.356 0-.707-.021-1.053-.062 1.953 1.253 4.276 1.985 6.776 1.985 8.13 0 12.58-6.736 12.58-12.58 0-.192-.004-.384-.013-.574.864-.623 1.613-1.4 2.205-2.287z"/></svg>
